# xmcd
# Track frame offsets:
# 150
# 17847
# 35410
# 51147
# 67315
# 85530
# 105752
# 123155
# 141147
# 160327
# 175630
# 188457
#
# Disc length: 2705 seconds
# Revision: 4
# Processed by: cddbd v1.5.1PL2 Copyright (c) Steve Scherf et al.
# Submitted via: VisiTrax 2.10.0.248 - For more info visit www.synapsa.com
#
DISCID=8e0a8f0c
DTITLE=Reba McEntire - If You See Him CD 1
DYEAR=1998
DGENRE=
TTITLE0=Reba McEntire and Brooks and Dunn - If You See Him/If You See Her
TTITLE1=Reba McEntire - One Honest Heart
TTITLE2=Reba McEntire - I Wouldn't Know
TTITLE3=Reba McEntire - I'll Give You Something To Miss
TTITLE4=Reba McEntire - Invisible
TTITLE5=Reba McEntire - Up And Flying
TTITLE6=Reba McEntire - Forever Love
TTITLE7=Reba McEntire - Face To Face
TTITLE8=Reba McEntire - Heart Hush
TTITLE9=Reba McEntire - Lonely Again
TTITLE10=Reba McEntire - Wrong Night
TTITLE11=Reba McEntire - All This Time
EXTD=
EXTT0=
EXTT1=
EXTT2=
EXTT3=
EXTT4=
EXTT5=
EXTT6=
EXTT7=
EXTT8=
EXTT9=
EXTT10=
EXTT11=
PLAYORDER=
